<svg xmlns="http://www.w3.org/2000/svg" version="1.1" xmlns:xlink="http://www.w3.org/1999/xlink" width="512" height="512"><svg width="512" height="512" viewBox="0 0 135.46666 135.46667" version="1.1" id="SvgjsSvg1015" sodipodi:docname="logo.svg" inkscape:version="1.4.2 (ebf0e940d0, 2025-05-08)" xmlns:inkscape="http://www.inkscape.org/namespaces/inkscape" xmlns:sodipodi="http://sodipodi.sourceforge.net/DTD/sodipodi-0.dtd" xmlns="http://www.w3.org/2000/svg" xmlns:svg="http://www.w3.org/2000/svg">
  <sodipodi:namedview id="SvgjsSodipodi:namedview1014" pagecolor="#505050" bordercolor="#eeeeee" borderopacity="1" inkscape:showpageshadow="0" inkscape:pageopacity="0" inkscape:pagecheckerboard="0" inkscape:deskcolor="#d1d1d1" inkscape:document-units="mm" inkscape:zoom="1.0015858" inkscape:cx="255.59468" inkscape:cy="172.22688" inkscape:window-width="1920" inkscape:window-height="1002" inkscape:window-x="0" inkscape:window-y="0" inkscape:window-maximized="1" inkscape:current-layer="layer1"></sodipodi:namedview>
  <defs id="SvgjsDefs1013"></defs>
  <g inkscape:label="Layer 1" inkscape:groupmode="layer" id="SvgjsG1012">
    <rect style="fill:#1f1f1f;fill-opacity:1;stroke-width:0.714136;paint-order:markers fill stroke" id="SvgjsRect1011" width="135.46666" height="135.46666" x="0" y="0"></rect>
    <path style="font-size:105.833px;line-height:1.25;font-family:Hack;-inkscape-font-specification:Hack;text-align:end;text-anchor:end;fill:#40ea2e;stroke-width:0.264583" d="m 40.060695,102.40811 q -11.730513,0 -18.396752,-5.78774 -6.614562,-5.787742 -6.614562,-16.381378 0,-8.216527 4.134101,-13.43583 4.082426,-5.167627 11.833866,-6.872944 Q 27.865096,59.155074 25.17793,57.55311 22.490764,55.951146 20.630418,53.625713 18.66672,51.196929 17.736547,48.303058 16.85805,45.409187 16.85805,42.153582 q 0,-8.939995 6.252829,-14.41768 3.0489,-2.635489 7.234678,-3.979072 4.237454,-1.39526 9.766815,-1.39526 10.80034,0 17.053169,5.374332 6.252828,5.322656 6.252828,14.469356 0,6.821267 -3.720691,11.420455 -3.669015,4.547512 -10.438607,6.304505 7.803117,1.705317 11.885542,6.872944 4.082426,5.167627 4.082426,13.332478 0,5.426008 -1.756993,9.56011 -1.705317,4.082425 -4.909246,6.872943 -6.717915,5.839417 -18.500105,5.839417 z m 0.05168,-46.353612 q 6.304505,0 9.611786,-3.255605 3.307281,-3.255605 3.307281,-9.456757 0,-6.304505 -3.255605,-9.611786 -3.307281,-3.307282 -9.663462,-3.307282 -6.252829,0 -9.56011,3.307282 -3.307281,3.307281 -3.307281,9.611786 0,6.201152 3.307281,9.456757 3.307281,3.255605 9.56011,3.255605 z M 40.2674,94.243261 q 6.872944,0 10.645312,-3.927396 3.824044,-3.979073 3.824044,-11.007046 0,-3.824044 -1.033525,-6.562886 -0.98185,-2.738842 -2.790519,-4.547512 -3.87572,-3.927396 -10.80034,-3.927396 -6.92462,0 -10.748664,3.87572 -3.824044,3.927397 -3.824044,11.007046 0,7.131325 3.824044,11.110398 3.927396,3.979072 10.903692,3.979072 z m 56.430485,20.618829 q 6.769595,-11.83386 10.283575,-23.719405 1.60197,-5.529361 2.48046,-11.472132 0.8785,-5.942771 0.8785,-11.988894 0,-11.885542 -3.35896,-23.512703 -1.60196,-5.529361 -4.18577,-11.472132 -2.53214,-5.942771 -6.097805,-12.092247 h 8.268205 q 7.90647,12.247276 11.62716,23.874437 3.82404,11.885542 3.82404,23.202645 0,11.420455 -3.82404,23.305997 -3.77237,11.678834 -11.62716,23.874434 z" id="SvgjsPath1010" aria-label="8)"></path>
  </g>
</svg><style>@media (prefers-color-scheme: light) { :root { filter: none; } }
@media (prefers-color-scheme: dark) { :root { filter: none; } }
</style></svg>